<svg width="102" height="116" viewBox="0 0 102 116" fill="none" xmlns="http://www.w3.org/2000/svg">
<path fill-rule="evenodd" clip-rule="evenodd" d="M51.8952 0.0252706C52.7453 0.0151626 53.5888 0.172954 54.3765 0.489405C55.1642 0.805856 55.8801 1.2746 56.4823 1.8682C57.0846 2.46179 57.5611 3.16829 57.8839 3.94634C58.2066 4.72438 58.3693 5.55831 58.3622 6.3993C58.3595 8.10065 57.6762 9.73178 56.4615 10.9362C55.2469 12.1407 53.5997 12.8205 51.8799 12.8272C48.2771 12.8272 45.304 9.8961 45.3686 6.34375C45.4469 2.16342 49.0957 -0.277774 51.8952 0.0252706ZM75.9329 23.3781C75.6758 23.3781 75.4169 23.3894 75.158 23.4006C74.5909 23.4253 74.024 23.4499 73.4772 23.3563C72.4225 23.1683 71.4596 22.6423 70.7369 21.8595C70.0142 21.0767 69.5717 20.0805 69.4778 19.0244C69.3076 16.6539 70.5789 14.6235 72.7232 13.8525C74.8199 13.0999 77.0799 13.8188 78.4329 15.6775C78.6413 15.9439 78.8162 16.2345 78.9537 16.5428C81.0095 21.7282 85.1824 24.4859 90.2709 26.1662C92.4629 26.8884 94.745 27.0989 97.051 27.1645C100.516 27.2622 102.813 30.5031 101.729 33.6951C101.088 35.5824 99.3468 36.9596 97.3659 37.0623C95.1058 37.17 93.4687 36.0993 92.5207 34.1463C90.8189 30.6411 88.1776 28.0585 84.9101 25.9793C82.1565 24.2199 79.2277 23.2334 75.9329 23.3781ZM11.8417 29.4442C10.7389 27.1663 8.81754 26.0417 6.02993 25.9087C5.46669 25.9807 4.90895 26.0898 4.36042 26.2353C3.40358 26.5325 2.53349 27.054 1.8242 27.7554C1.11491 28.4568 0.587421 29.3174 0.286618 30.2639C-0.0141857 31.2103 -0.0793949 32.2147 0.0965423 33.1914C0.272479 34.1682 0.684354 35.0884 1.29711 35.8738C2.61604 37.5759 3.92985 39.3049 4.45742 41.3926C5.72019 46.3995 5.91931 51.3476 3.21508 56.0616C2.308 57.6425 2.66709 59.4759 3.98942 60.5551C4.63076 61.0752 5.43589 61.357 6.26521 61.3515C7.09452 61.3459 7.89574 61.0535 8.52993 60.5248C9.16537 59.9954 9.5899 59.2597 9.72769 58.4493C9.86548 57.6388 9.70756 56.8063 9.28214 56.1003C6.64599 51.553 6.79745 46.7026 7.81005 41.8202C8.26955 39.5962 9.65314 37.7662 11.0793 35.9933C12.6841 33.9899 12.9598 31.7507 11.8417 29.4442ZM56.8207 62.1982C57.8843 60.954 58.4663 59.5348 58.4663 57.8916C58.5004 54.6659 56.1008 51.8274 52.9626 51.3829C49.5674 50.893 46.3816 52.8947 45.5136 56.1121C44.901 58.3832 45.3911 60.4456 46.9568 62.2302C49.2339 64.8263 50.6753 67.7675 50.8455 71.2525C51.0123 74.8116 50.9782 78.3336 48.9888 81.5105C48.1379 82.8793 48.1685 84.2464 48.9888 85.6404C50.3049 87.8513 50.9605 90.3859 50.8795 92.9505C50.8512 94.023 50.8575 95.096 50.8637 96.1693V96.1694V96.1695V96.1696V96.1698V96.1699V96.17V96.1701V96.1702C50.8687 97.0324 50.8737 97.8948 50.8608 98.7571C50.859 99.7129 50.7971 100.668 50.6753 101.616C50.3301 103.957 49.3792 106.17 47.9149 108.04C46.4939 109.907 46.5262 112.259 47.9047 114.059C48.5576 114.899 49.4647 115.511 50.4936 115.805C51.5225 116.099 52.6195 116.06 53.6246 115.694C56.7543 114.542 57.8622 110.788 55.82 108.035C54.3836 106.091 53.337 103.971 53.1379 101.584C52.9993 99.9408 52.9707 98.289 52.9421 96.6369V96.6366C52.9236 95.57 52.9051 94.5033 52.8571 93.4387C52.7178 90.6176 53.4222 87.8184 54.8823 85.3912C55.5749 84.206 55.6209 82.9719 54.8942 81.7934C52.5542 78.0205 52.5473 73.9025 53.1158 69.7356C53.5106 66.8533 54.9384 64.4003 56.8207 62.1982ZM100.163 59.7014C101.584 57.1777 99.8834 54.2281 97.038 54.2113C95.2425 54.2113 93.8351 55.3123 93.4147 57.0346C93.1663 58.0532 93.4539 58.9674 93.8895 59.8714C96.3147 64.8902 96.5427 70.1581 95.3106 75.4563C94.9433 77.0436 94.1057 78.5306 93.2811 79.9946L93.2808 79.9951L93.2806 79.9956L93.2803 79.9961L93.28 79.9966C93.1079 80.3022 92.9363 80.6068 92.7697 80.9111C91.7027 82.8624 91.7725 85.0494 93.1629 86.7245C93.8175 87.5078 94.6997 88.0732 95.6898 88.3442C96.68 88.6152 97.7304 88.5787 98.6989 88.2397C101.81 87.1454 103.005 83.5022 101.039 80.6906C98.0335 76.3924 97.2983 71.6481 97.8633 66.5872C98.153 64.1622 98.9351 61.82 100.163 59.7014ZM79.424 45.0223C79.4256 45.5838 79.0665 46.918 78.5543 47.7161C76.4338 51.0125 75.4995 54.6187 75.4365 58.4792C75.4311 58.7661 75.4355 59.0535 75.4399 59.341C75.4467 59.7839 75.4535 60.2268 75.4246 60.6678C75.2068 63.9297 75.8706 67.1902 77.3476 70.1144C77.688 70.7877 77.7702 71.5602 77.5791 72.2889C77.3879 73.0176 76.9363 73.653 76.3078 74.0775C75.7119 74.4911 74.9938 74.6968 74.2667 74.6623C73.5396 74.6279 72.8448 74.3552 72.2915 73.8873C71.2346 72.9849 70.9436 71.6246 71.4167 70.2053C71.5707 69.7421 71.7377 69.2798 71.9049 68.817C72.3695 67.5304 72.8356 66.2399 73.0284 64.9138C73.9014 58.8714 73.7823 52.952 70.1897 47.5729C69.0086 45.8035 69.1227 43.8691 70.3599 42.1165C71.5971 40.3639 73.3619 39.7359 75.428 40.1433C77.4327 40.539 78.7125 41.8269 79.2554 43.7798C79.2687 43.8431 79.2823 43.9043 79.2957 43.9646L79.2958 43.9652C79.3634 44.2703 79.4256 44.5511 79.4256 44.9415L79.424 45.0223ZM33.3753 42.5559C32.4427 40.9094 30.9621 40.0861 28.8689 40.0306C28.4779 40.069 28.0897 40.1314 27.7065 40.2175C24.4986 41.0862 23.132 44.6284 24.7606 47.5865C24.9208 47.8775 25.086 48.1692 25.2519 48.462L25.2519 48.4621L25.252 48.4622L25.252 48.4623L25.2521 48.4624C26.0486 49.8687 26.8605 51.3023 27.2028 52.8224C28.5132 58.6392 28.8383 64.466 26.1153 70.0791C25.0346 72.3082 26.7212 74.7477 29.2127 74.6534C31.5118 74.5658 32.8699 72.2492 31.9815 70.0606C31.8441 69.7209 31.6966 69.3804 31.5486 69.0386C31.031 67.8437 30.507 66.6338 30.3852 65.3954C30.1436 62.9548 30.1344 60.4904 30.1253 58.0282C30.1228 57.3516 30.1203 56.6751 30.1129 55.9993C30.1065 55.3157 30.2616 54.6229 30.4129 53.9471L30.4363 53.8427C30.9315 51.5951 31.9781 49.5883 33.2222 47.6606C34.2858 46.0123 34.3437 44.2631 33.3753 42.5559ZM49.8835 35.0109C50.4635 35.3976 51.1465 35.6048 51.8458 35.6062C52.3062 35.6142 52.7636 35.5315 53.1914 35.3629C53.6192 35.1944 54.0088 34.9432 54.3374 34.6242C54.6661 34.3052 54.9273 33.9246 55.1058 33.5047C55.2843 33.0848 55.3766 32.6339 55.3772 32.1784C55.389 31.4867 55.1925 30.8072 54.8128 30.2262C54.4331 29.6453 53.8873 29.1892 53.2448 28.9161C52.6023 28.6429 51.8922 28.565 51.2048 28.6923C50.5174 28.8196 49.8839 29.1462 49.3847 29.6308C48.8855 30.1153 48.5434 30.7357 48.4017 31.4132C48.2601 32.0907 48.3253 32.7945 48.5892 33.4352C48.8531 34.0758 49.3036 34.6243 49.8835 35.0109ZM32.5726 18.5497C32.5609 19.2344 32.345 19.9004 31.9521 20.4642C31.5592 21.028 31.0067 21.4644 30.364 21.7187C29.7213 21.9731 29.017 22.034 28.3395 21.8938C27.6619 21.7536 27.0413 21.4186 26.5555 20.9308C26.0696 20.443 25.7403 19.8241 25.6087 19.1518C25.4771 18.4795 25.5491 17.7837 25.8157 17.1518C26.0823 16.5198 26.5316 15.9798 27.1073 15.5995C27.683 15.2193 28.3593 15.0156 29.0515 15.0142C29.5184 15.0142 29.9806 15.106 30.4113 15.2843C30.842 15.4626 31.2325 15.7238 31.5602 16.0528C31.8878 16.3818 32.1461 16.772 32.3199 17.2007C32.4937 17.6293 32.5796 18.0879 32.5726 18.5497ZM77.0528 98.0985C77.4214 97.5817 77.6268 96.9684 77.6432 96.3361C77.6597 95.4889 77.3379 94.6694 76.7475 94.0554C76.1571 93.4414 75.3459 93.0825 74.4897 93.0565C73.8505 93.041 73.221 93.2134 72.6809 93.5518C72.1407 93.8902 71.714 94.3794 71.4549 94.9576C71.1957 95.5358 71.1156 96.177 71.2247 96.8003C71.3338 97.4235 71.6272 98.0007 72.0679 98.459C72.5086 98.9173 73.0767 99.2361 73.7004 99.375C74.3242 99.5139 74.9756 99.4668 75.5723 99.2396C76.1689 99.0124 76.6842 98.6153 77.0528 98.0985Z" fill="white"/>
</svg>
